<svg xmlns="http://www.w3.org/2000/svg" version="1.1" xmlns:xlink="http://www.w3.org/1999/xlink" xmlns:svgjs="http://svgjs.dev/svgjs" width="1200" height="800" preserveAspectRatio="none" viewBox="0 0 1200 800"><g mask="url(&quot;#SvgjsMask1053&quot;)" fill="none"><rect width="1200" height="800" x="0" y="0" fill="rgba(138, 190, 83, 1)"></rect><circle r="7.01" cx="797.15" cy="150.57999999999998" filter="url(#SvgjsFilter1054)" fill="rgba(63, 175, 34, 0.23)"></circle><circle r="11.38" cx="77.74" cy="590.25" filter="url(#SvgjsFilter1054)" fill="rgba(63, 175, 34, 0.23)"></circle><circle r="11.215" cx="479.35499999999996" cy="602.1650000000001" filter="url(#SvgjsFilter1054)" fill="rgba(63, 175, 34, 0.23)"></circle><circle r="9.18" cx="940.87" cy="565.56" filter="url(#SvgjsFilter1054)" fill="rgba(63, 175, 34, 0.23)"></circle><circle r="7.565" cx="35.625" cy="590.9350000000001" filter="url(#SvgjsFilter1054)" fill="rgba(63, 175, 34, 0.23)"></circle><circle r="9.015" cx="220.575" cy="310.235" filter="url(#SvgjsFilter1054)" fill="rgba(63, 175, 34, 0.23)"></circle><circle r="9.36" cx="223.69" cy="212.48000000000002" filter="url(#SvgjsFilter1054)" fill="rgba(63, 175, 34, 0.23)"></circle><circle r="8.765" cx="587.175" cy="140.065" filter="url(#SvgjsFilter1054)" fill="rgba(63, 175, 34, 0.23)"></circle><circle r="7.93" cx="386.02" cy="659.64" filter="url(#SvgjsFilter1054)" fill="rgba(63, 175, 34, 0.23)"></circle><circle r="9.475" cx="795.4350000000001" cy="551.575" filter="url(#SvgjsFilter1054)" fill="rgba(63, 175, 34, 0.23)"></circle><circle r="9.485" cx="1078.2649999999999" cy="689.715" filter="url(#SvgjsFilter1054)" fill="rgba(63, 175, 34, 0.23)"></circle><circle r="10.34" cx="622.5400000000001" cy="236.4" filter="url(#SvgjsFilter1054)" fill="rgba(63, 175, 34, 0.23)"></circle><circle r="8.215" cx="557.4350000000001" cy="15.205" filter="url(#SvgjsFilter1054)" fill="rgba(63, 175, 34, 0.23)"></circle><circle r="7.5" cx="798.2" cy="165.38" filter="url(#SvgjsFilter1054)" fill="rgba(63, 175, 34, 0.23)"></circle><circle r="7.325" cx="695.7750000000001" cy="679.475" filter="url(#SvgjsFilter1054)" fill="rgba(63, 175, 34, 0.23)"></circle><circle r="7.73" cx="404.39000000000004" cy="464.58000000000004" filter="url(#SvgjsFilter1054)" fill="rgba(63, 175, 34, 0.23)"></circle><circle r="7.9" cx="224.61" cy="516.34" filter="url(#SvgjsFilter1054)" fill="rgba(63, 175, 34, 0.23)"></circle><circle r="8.7" cx="571.4200000000001" cy="762.1400000000001" filter="url(#SvgjsFilter1054)" fill="rgba(63, 175, 34, 0.23)"></circle><circle r="12.805" cx="1028.055" cy="201.76500000000001" filter="url(#SvgjsFilter1054)" fill="rgba(63, 175, 34, 0.23)"></circle><circle r="7.09" cx="574.8100000000001" cy="606.62" filter="url(#SvgjsFilter1054)" fill="rgba(63, 175, 34, 0.23)"></circle><path d="M167.8 434.7L184.3 425.9 184.4 437.1C184.3 438.3 185.4 439.6 187 440 188.5 439.6 189.8 438.5 189.4 437L189.7 422.9 202.3 415.5 201.5 444.9C201.8 446.3 202.9 447.6 204.1 447.7 206 447.6 207.3 446.5 207 445.1L207.7 412.6 227.2 401.9 223.9 427.2 244.6 412.3 244.4 434.5 216.1 450.5C215.6 450.3 215.4 450.7 215.1 451.2 214.6 452.1 214.5 453.3 215.1 454.3 215.7 455.3 217.4 455.7 218.9 455.3L244.4 440.7 243.7 455.3 231.5 462.2C230.8 462.4 230.5 462.9 230.2 463.3 229.9 463.8 229.8 465 230.5 466 231.1 467 232.8 467.3 233.8 466.7L243.7 461.5 243.8 480.1C243.4 481.8 244.8 482.6 246.4 483 247.6 483.1 248.9 482 248.8 480L249.2 461.7 258.8 467.4C260.2 468.2 261.9 467.4 262.5 466.5 263.3 465.1 262.9 463.7 261.6 462.8L249.2 455.4 249.8 440.9 274.6 455.7C275.9 456.5 277.4 456.1 278.2 454.8 278.8 453.9 278.7 451.9 277.3 451.1L249.8 434.7 250.1 412.5 270.2 427.6 267.8 402.6 287.1 414.1 286.5 446.1C286.6 448 288 448.8 289.2 448.9 290.4 449 291.7 447.9 292 446.3L292.1 417.1 304.4 424.5 304.5 438.8C304.2 440.5 305.3 441.8 307.2 441.7 308.4 441.8 309.7 440.7 309.6 438.7L309.9 427.8 325.9 437.4C327.3 438.2 328.8 437.8 329.6 436.4S330.1 433.6 328.7 432.8L312.7 423.2 322.2 417.7C323.9 416.9 324.3 415.2 323.6 414.2 322.8 412.5 321.2 412.1 319.9 413.2L307.2 419.9 294.8 412.5 320.5 398.7C321.8 397.6 322.2 395.9 321.5 394.9 320.7 393.2 319 392.8 317.8 393.9L289.8 409.5 270.6 398 293.8 388.3 270.9 377.7 290.4 367 317.8 383.4C319.2 384.2 321 383.4 321.5 382.5 322.3 381.1 322 379.6 320.6 378.8L295.4 363.8 308.4 356.6 320.8 364C322.1 364.8 323.6 364.5 324.4 363.1 325 362.2 324.9 360.2 323.5 359.4L313.9 353.7 329.9 344.6C331.6 343.8 332 342.1 330.9 340.9 330.2 339.8 328.9 339 327.6 340.1L311.1 348.9 311 337.7C311.1 336.5 310 335.2 308.8 335.1 307.6 335 306.6 335.7 306.4 336.1 306.1 336.6 305.8 337 306 337.8L305.7 351.9 293.1 359.3 293.9 329.9C293.6 328.4 292.5 327.2 291.3 327.1 290.1 327 289.1 327.6 288.5 328.5 288.3 329 288.3 329 288.4 329.7L287.6 362.2 268.2 372.9 271.5 347.6 250.8 362.5 251 340.3 279.3 324.3C280.3 323.6 281.1 322.2 280.3 320.5 279.6 319.5 278 319.1 276.5 319.5L251 334.1 251.7 319.5 263.9 312.6C265.4 312.2 265.7 310.5 264.9 308.8 264.3 307.8 262.6 307.4 261.2 307.8L251.7 313.3 251.6 294.6C252 293 250.6 292.2 249 291.8 248.2 292 247.2 292.6 247 293.1 246.7 293.6 246.4 294 246.6 294.7L246.2 313.1 236.6 307.4C235.2 306.6 233.4 307.4 232.9 308.3L232.9 308.3C232.1 309.7 232.4 311.1 233.8 311.9L246.2 319.3 245.5 333.9 220.8 319.1C219.5 318.3 218 318.6 217.2 320S216.7 322.8 218.1 323.7L245.5 340.1 245.3 362.3 225.2 347.2 227.6 372.2 208.3 360.7 208.9 328.7C208.8 326.8 207.4 326 206.2 325.9 205 325.8 203.7 326.9 203.4 328.5L202.8 357.4 191 350.3 190.8 336C191.2 334.3 190.1 333 188.2 333.1 187 333 185.7 334.1 185.4 335.8L185.5 347 169.4 337.4C168.1 336.6 166.6 337 165.8 338.4S165.3 341.2 166.7 342L182.7 351.6 173.2 357.1C172.5 357.3 172.2 357.7 171.9 358.2 171.4 359.1 171.6 359.8 171.8 360.6 172.6 362.3 174.2 362.7 175.5 361.6L188.2 354.9 200.6 362.3 174.9 376.1C174.6 376.6 174.3 377 174.1 377.5 173.5 378.4 173.7 379.1 173.9 379.9 174.7 381.6 176.3 382 177.6 380.9L205.6 365.3 224.8 376.8 201.6 386.5 224.5 397.1 205 407.8 177.5 391.4C176.2 390.6 174.4 391.4 173.9 392.3 173.1 393.7 173.4 395.1 174.8 396L199.5 410.8 187 418.2 174.6 410.8C173.3 410 171.8 410.3 171 411.7S170.5 414.5 171.9 415.4L181.5 421.1 165.5 430.2C164.8 430.4 164.5 430.8 164.2 431.3 164 431.7 163.9 432.9 164.5 433.9 165.1 434.9 166.5 435.8 167.8 434.7ZM214.5 386.8L233.5 378.9 231.5 358.4 248.2 370.9 264.7 359 262.4 379.4 280.9 388 261.9 395.9 263.9 416.4 247.6 404.1 230.7 415.8 233.4 395.6 214.5 386.8Z" fill="rgba(63, 175, 34, 0.23)"></path><path d="M455.8 704.5L458.9 732 443.3 751.1 434.5 728.1 445.9 703C445.9 703 446 702.6 446 702.6 446.1 702 445.5 701.2 444.9 700.8 444 700.3 442.9 700.8 442.7 701.8L432.8 723.8 428.5 712.7 432.8 702.9C432.8 702.9 432.8 702.6 432.8 702.6 432.9 701.9 432.4 701.1 431.8 700.7 430.8 700.2 429.8 700.7 429.6 701.7L426.5 708.3 423.4 700C423.2 699.3 422 698.8 421.2 699 420.2 699.2 420 700.5 420.2 701.2L423.3 709.5 416.7 706.4C415.8 705.9 414.7 706.4 414.5 707.4 414 708.3 414.5 709.4 415.5 709.6L425.3 713.8 429.3 724.9 407.2 715C406.3 714.5 405.2 715 405 716 404.6 716.9 405.1 718 406 718.2L431.2 729.6 440 752.6 415.4 748.7 399 726.2C398.5 725.4 397.5 725.3 396.7 725.8 396 726.4 395.8 727.4 396.4 728.1L410.7 748 398.9 746.1 392.8 737.7C392.3 736.9 391.3 736.8 390.5 737.3 389.7 737.9 389.6 738.9 390.1 739.6L394.3 745.4 385.1 743.9C384.1 743.4 383.3 744.3 383.2 745.3 383 746.3 383.6 747 384.5 747.2L393.1 748.5 387.4 752.7C386.6 753.2 386.5 754.2 387 755S388.6 755.9 389.3 755.4L397.7 749.3 409.6 751.2 389.7 765.6C389 766.1 388.8 767.1 389.4 767.9 389.9 768.6 390.9 768.8 391.7 768.2L414.2 751.9 438.5 755.8 423 774.9 396.2 777.7C395.2 777.9 394.7 778.8 394.5 779.8 394.7 780.9 395.6 781.4 396.6 781.5L420.7 778.9 413.1 788.2 402.5 789.2C401.5 789.4 401 790.3 400.8 791.3 401 792.3 401.9 792.8 402.6 792.9L409.8 792 404.3 798.9C403.9 799.5 403.7 800.9 404.6 801.3 405.5 801.8 406.5 802 407 801.1L412.5 794.2 413.4 801.4C413.6 802.4 414.5 802.9 415.1 803 415.9 802.8 416.6 802.2 416.7 801.6 416.7 801.6 416.8 801.3 416.8 801.3L415.8 790.6 423.3 781.4 425.9 805.4C426.1 806.4 427 806.9 427.7 807 428.4 806.8 429.1 806.3 429.2 805.6 429.2 805.6 429.3 805.3 429.3 805.3L426.3 777.8 441.8 758.7 450.6 781.7 439.2 806.8C438.7 807.8 439.2 808.9 440.2 809 441.1 809.5 442.2 809 442.4 808L452.3 786 456.6 797.1 452.3 806.9C451.8 807.9 452.3 808.9 453.3 809.1 454.3 809.6 455.4 809.1 455.5 808.1L458.6 801.5 461.7 809.8C461.9 810.5 463.2 811 463.9 810.8 464.6 810.6 465 810 465.1 809.3 465.2 809 465.2 808.6 464.9 808.3L461.9 800 468.5 803.1C469.4 803.6 470.5 803.1 470.7 802.1 470.7 802.1 470.7 801.7 470.7 801.7 470.8 801.1 470.3 800.3 469.6 799.9L459.9 795.6 455.6 784.5 477.6 794.4C478.5 794.9 479.6 794.4 479.8 793.4 479.8 793.4 479.8 793.1 479.8 793.1 480 792.4 479.4 791.7 478.8 791.2L453.6 779.8 444.8 756.8 469.1 760.7 485.5 783.2C486 783.9 487 784.1 487.8 783.5 488.5 783 488.7 782 488.1 781.2L474.1 761.4 485.9 763.3 492 771.7C492.6 772.5 493.6 772.6 494.3 772.1S495.2 770.6 494.7 769.8L490.5 764.1 499.1 765.4C500.1 765.6 500.9 765 501 764 501.2 763.1 500.6 762.3 499.6 762.1L491.1 760.8 496.8 756.6C497.2 756.3 497.6 756.1 497.7 755.4S497.5 754.4 497.2 754C496.7 753.2 495.7 753.1 494.9 753.6L486.5 759.7 474.7 757.8 494.5 743.4C494.9 743.2 495.3 742.9 495.4 742.2 495.4 741.9 495.2 741.2 494.9 740.8 494.4 740 493.4 739.9 492.6 740.4L470.1 756.8 445.7 752.9 461.3 733.7 488.8 730.7C489.5 730.5 490.2 729.9 490.3 729.3 490.3 729.3 490.4 728.9 490.4 728.9 490.2 727.9 489.3 727.4 488.6 727.3L464.6 729.9 472.1 720.6 482.8 719.6C483.5 719.4 484.2 718.8 484.4 718.2 484.4 718.2 484.4 717.9 484.4 717.9 484.2 716.8 483.3 716.3 482.6 716.2L475.4 717.1 480.9 710.2C480.9 709.9 481.3 709.6 481.4 709.3 481.5 708.6 481.3 707.9 480.7 707.5 479.7 707 478.7 706.8 478.2 707.8L472.8 714.7 471.9 707.4C471.7 706.4 470.8 705.9 470.1 705.8 469.1 706 468.6 706.9 468.5 707.6L469.5 718.2 461.9 727.4 459.4 703.4C459.2 702.4 458.3 701.9 457.6 701.8 456.5 702.6 455.6 703.5 455.8 704.5Z" fill="rgba(63, 175, 34, 0.23)"></path><path d="M883.9 603.7L880.2 585.4 891 588.5C892.1 589 893.7 588.3 894.5 586.8 894.6 585.3 893.9 583.8 892.4 583.7L879 579.3 875.5 565.2 903.4 574.4C904.9 574.5 906.4 573.8 906.8 572.7 907.3 570.8 906.6 569.3 905.1 569.2L874.2 559.1 869.6 537.4 892.9 547.9 884.5 523.7 905.8 530.3 913 562C912.6 562.4 913 562.8 913.3 563.1 914 563.9 915.1 564.4 916.3 564 917.4 563.7 918.3 562.2 918.3 560.7L911.7 532.1 925.5 536.9 928.6 550.6C928.6 551.4 928.9 551.8 929.3 552.2 929.7 552.6 930.8 553 931.9 552.7 933.1 552.3 933.9 550.9 933.6 549.7L931.4 538.7 949.3 544C950.8 544.9 952 543.8 952.8 542.3 953.2 541.2 952.5 539.7 950.7 539.2L933.2 533.5 941.4 525.9C942.6 524.9 942.3 523 941.6 522.2 940.5 521 939 520.9 937.9 522L927.2 531.7 913.5 526.9 934.7 507.5C935.9 506.4 936 504.9 934.9 503.7 934.2 502.9 932.3 502.5 931.2 503.6L907.5 525.1 886.3 518.5 906.6 503.6 881.9 498.7 898.5 483.6 929 493.3C930.8 493.7 932 492.7 932.5 491.5 932.9 490.4 932.2 488.9 930.7 488.1L902.8 479.6 913.4 469.9 927.2 473.9C928.7 474.8 930.2 474.1 930.7 472.2 931.1 471.1 930.4 469.6 928.6 469.1L918.2 465.6 932 453C933.1 451.9 933.2 450.4 932.1 449.2S929.5 448 928.4 449.1L914.6 461.7 912 451C911.8 449.1 910.3 448.2 909.1 448.6 907.2 448.9 906.4 450.3 907.1 451.9L909.8 466 899.2 475.7 893.3 447.1C892.7 445.5 891.2 444.7 890 445 888.1 445.3 887.3 446.8 888 448.3L894.9 479.6 878.3 494.7 875.7 469.7 859 488.5 854.3 466.8 878 445.2C879.1 444.2 878.8 442.3 878.1 441.5 877.1 440.3 875.5 440.2 874.4 441.3L852.7 461.1 849.6 446.6 860.2 436.9C861.4 435.8 861.5 434.3 860.4 433.1 859.7 432.3 857.8 431.9 856.6 432.9L848.3 440.5 844.3 422.6C844 420.7 842.5 419.8 841 420.5 839.8 420.8 838.6 421.9 839.3 423.5L843 441.8 832.2 438.6C831.1 438.2 829.5 438.9 829.1 440 828.7 441.1 829 442.2 829.4 442.6 829.7 443 830.1 443.4 830.8 443.5L844.2 447.8 847.7 462 819.8 452.8C818.3 452.7 816.8 453.4 816.4 454.5 815.9 455.6 816.3 456.8 817 457.5 817.3 457.9 817.3 457.9 818.1 458L849 468.1 853.6 489.8 830.3 479.3 838.7 503.5 817.4 496.8 810.2 465.2C809.9 464 808.8 462.8 806.9 463.1 805.8 463.4 804.9 464.9 804.9 466.4L811.5 495 797.7 490.3 794.6 476.5C794.7 475 793.2 474.2 791.3 474.5 790.1 474.8 789.3 476.3 789.3 477.8L791.8 488.5 773.9 483.1C772.4 482.3 771.3 483.4 770.4 484.9 770.4 485.6 770.7 486.8 771.1 487.1 771.4 487.5 771.8 487.9 772.6 488L790 493.7 781.8 501.2C780.6 502.3 780.9 504.2 781.6 505L781.6 505C782.7 506.2 784.2 506.2 785.4 505.2L796 495.5 809.7 500.2 788.5 519.7C787.3 520.7 787.2 522.2 788.3 523.4S790.9 524.7 792.1 523.6L815.7 502 836.9 508.7 816.6 523.6 841.3 528.5 824.7 543.6 794.2 533.9C792.4 533.4 791.2 534.5 790.7 535.6 790.3 536.7 791 538.3 792.5 539.1L820 547.9 809.8 557.3 796 553.2C794.5 552.4 793 553.1 792.5 555 792.1 556.1 792.8 557.6 794.2 558.4L805 561.6 791.2 574.1C790.1 575.2 790 576.7 791.1 577.9S793.7 579.2 794.8 578.1L808.6 565.5 811.2 576.2C811.1 576.9 811.5 577.3 811.8 577.7 812.6 578.5 813.3 578.6 814.1 578.6 816 578.3 816.8 576.8 816.1 575.3L813.4 561.2 824 551.5 829.9 580.1C830.2 580.5 830.6 580.9 830.9 581.3 831.7 582 832.4 582.1 833.2 582.1 835.1 581.8 835.9 580.4 835.2 578.8L828.3 547.5 844.9 532.4 847.5 557.5 864.2 538.6 868.9 560.3 845.3 581.9C844.1 583 844.4 584.9 845.1 585.7 846.2 586.9 847.7 586.9 848.8 585.9L870.1 566.4 873.6 580.6 863 590.3C861.8 591.4 861.7 592.9 862.8 594S865.4 595.3 866.6 594.2L874.9 586.7 878.9 604.6C878.9 605.4 879.3 605.8 879.6 606.1 880 606.5 881.1 607 882.2 606.6 883.4 606.3 884.6 605.2 883.9 603.7ZM851.5 545.2L849.4 524.7 829.2 520.8 846 508.3 839.3 489.2 858.2 497.2 871.7 482 873.8 502.4 894 506.4 877.6 518.5 883.9 538 865.4 529.6 851.5 545.2Z" fill="rgba(63, 175, 34, 0.23)"></path><path d="M456.8 493.2L457.3 537.3 449.1 546.3 422.7 539.7 419 527.8 440.7 489.3C440.8 488.7 440.8 488.7 441 488.2 441.2 487.2 441 486 439.5 485.1 438 484.7 436.8 485 435.9 486.4L417.1 520.2 411.8 501.8 419.9 486.8C419.9 486.8 420 486.3 420 486.3 420.3 485.3 420 484.1 418.6 483.2 417.7 482.4 415.9 483.1 415 484.5L409.3 494.1 405.5 480.5C405.3 479.4 403.8 478.4 402.1 478.6S400 480.8 400.1 482.5L404 495.5 394.3 490.4C392.9 489.5 391 490.1 390.1 491.5 389.9 492.6 390 494.3 391.4 495.2L406.5 503.3 411.7 522.2 377.9 503.3C376.4 502.4 374.6 503.1 373.9 504 373.5 505.5 373.6 507.2 375 508.1L413.7 529.3 417.3 541.7 398.8 560.7 386.4 557.6 363.3 520C362.5 518.7 361 518.4 359.7 519.1S358 521.5 358.8 522.8L379.1 555.8 360 551.1 351.4 536.9C350.6 535.6 349.1 535.2 347.3 535.8S345.6 538.2 346.4 539.5L352.7 549.3 338.7 545.8C337.2 545.4 335.8 546.7 335.4 548.3 335 549.8 335.8 551.1 337.3 551.5L351.3 555 341.6 560.8C339.8 561.5 339.4 563 340.7 564.4 341.5 565.7 343.1 566.1 344.3 565.3L358.6 556.8 377.7 561.5 344.2 581.3C342.9 582 342.4 584.1 343.2 585.4S345.5 587.1 346.8 586.3L385 563.3 397.4 566.4 404.7 592.4 395.9 601.2 351.8 601.8C350.1 601.9 349.2 603.4 348.8 604.9 348.9 606.6 350.4 607.5 351.9 607.9L390.6 607 377.3 620.8 360.2 620.9C358.5 621.1 357.6 622.5 357.2 624 357.5 625.2 358.8 626.6 360.5 626.5L371.5 626.5 361.8 636.7C361 637.6 361.2 639.3 361.9 640.6 363.4 641.5 365 641.4 365.8 640.5L375.5 630.2 375.9 641.9C376.2 643 377.5 644.5 378.6 644.2 380.2 644.6 381 643.7 381.3 642.1 381.3 642.1 381.5 641.6 381.5 641.6L381.3 624.5 394.6 610.8 395.4 649.5C395.6 651.1 396.4 652.4 398 652.3 399.7 652.2 400.5 651.3 400.8 650.2 400.9 649.7 400.9 649.7 400.9 649.7L399.9 605 408.7 596.1 435.1 602.7 438.2 614.5 416.9 653.7C416.2 654.6 416.8 656.4 417.7 657.2 419.1 658.1 420.9 657.4 421.8 656L440.7 622.2 446 640.6 437.9 655.6C437 657 437.1 658.7 438.7 659.1 440.1 660 441.9 659.3 442.7 658.4L448 648.2 451.7 661.8C452.5 663.1 453.9 664 455.6 663.9 456.3 663.5 457 662.6 457.3 661.5 457.4 661 457.4 661 457 660.4L453.3 646.8 463.5 652.1C464.9 653 466.2 652.2 467 651.3 467.1 650.8 467.1 650.8 467.2 650.2 467.5 649.2 467.2 648.1 466.3 647.3L451.3 639.2 446 620.8 479.8 639.6C481.3 640 483 639.9 483.4 638.3 484 637.9 484 637.9 484.2 637.4 484.4 636.4 483.6 635.1 482.7 634.3L443.5 613 440.4 601.3 459 581.7 470.9 584.7 493.8 622.8C494.6 624.1 496.7 624.6 498 623.8S499.8 621 499 619.7L478.6 586.6 497.3 591.2 506.4 605.6C507.1 606.8 508.7 607.2 510 606.5 511.3 605.7 511.7 604.1 510.9 602.8L505 593.1 519 596.6C520.1 596.9 521.9 596.2 522.3 594.7 522.6 593.1 521.5 591.2 520.4 590.9L506.5 587.4 516.2 581.6C516.8 581.2 517.4 580.8 517.6 580.3 517.8 579.3 517.4 578.6 517 578 516.3 576.7 514.7 576.3 513.4 577.1L498.7 585.5 480.1 580.9 513.5 561.2C514.2 560.8 514.3 560.3 514.6 559.2 514.7 558.7 514.8 558.2 514.4 557.6 513.6 556.3 511.6 555.7 510.3 556.5L472.3 579 460.4 576 453 550.5 461.4 541.1 506 540.6C507.2 540.4 508.4 539.6 508.7 538.5 508.8 538 508.8 538 508.3 537.9 508.7 536.4 507.4 534.9 505.7 535.1L467 535.9 480.5 521.7 497.6 521.5C498.7 521.2 499.5 520.3 499.7 519.3 499.7 519.3 499.9 518.8 499.9 518.8 500.3 517.2 499 515.8 497.3 515.9L485.6 516.3 495.3 506.1C496 505.7 496.1 505.2 496.2 504.7 496.5 503.6 496.2 502.5 495.7 502.4 494.4 500.9 492.7 501.1 491.4 501.8L481.8 512.1 481.7 501.1C481.6 499.4 480.3 498 478.6 498.1 477.5 498.4 476 499.7 476.3 500.8L476.5 517.9 463.2 531.6 462.3 493C462.2 491.3 460.8 490.4 459.2 490 458 490.3 456.6 491.6 456.8 493.2ZM424.4 546.2L444.6 551.2 447.7 552 448.6 554.9 454.2 574.5 455 578 452.8 580.2 438.7 594.8 436.5 597 433.4 596.2 413.2 591.2 410.1 590.5 409.2 587.5 403.6 568 402.7 565 405 562.3 419.1 547.6 421.3 545.4 424.4 546.2Z" fill="rgba(63, 175, 34, 0.23)"></path><path d="M727.5 780.6L700.4 774.9 687.2 754.1 711.8 753 732.1 771.8C732.1 771.8 732.4 771.9 732.4 771.9 733 772.2 733.9 771.9 734.5 771.5 735.2 770.8 735.1 769.6 734.2 769.1L716.4 752.8 728.3 752.2 736.3 759.3C736.3 759.3 736.6 759.5 736.6 759.5 737.2 759.8 738.1 759.5 738.7 759 739.4 758.3 739.3 757.1 738.4 756.6L733.1 751.7 741.9 751.3C742.7 751.3 743.6 750.3 743.6 749.6 743.7 748.5 742.6 747.9 741.8 747.9L733 748.2 738 742.9C738.8 742.2 738.6 741 737.7 740.5 737 739.8 735.8 739.9 735.4 740.8L728.2 748.8 716.5 749 732.8 731.2C733.6 730.5 733.4 729.3 732.5 728.8 731.8 728.1 730.6 728.2 730.2 729.1L711.4 749.4 686.8 750.5 698.3 728.3 724.8 719.9C725.7 719.6 726.1 718.8 725.8 717.9 725.6 717 724.7 716.5 723.8 716.8L700.4 724.2 705.9 713.5 715.8 710.4C716.7 710.1 717.2 709.2 716.9 708.3 716.6 707.4 715.7 707 714.8 707.3L708.1 709.4 712.4 701.1C713.1 700.4 712.5 699.3 711.7 698.9 710.8 698.4 709.9 698.7 709.4 699.6L705.4 707.3 703.3 700.5C703 699.6 702.1 699.2 701.2 699.5S699.8 700.6 700.1 701.5L703.3 711.4 697.8 722.1 690.3 698.7C690 697.8 689.2 697.4 688.3 697.6 687.4 697.9 686.9 698.8 687.2 699.7L695.6 726.2 684.3 748.1 671 727.4 676.7 701.1C676.9 700 676.2 699.3 675.3 698.8 674.2 698.6 673.5 699.4 673 700.3L667.9 723.9 661.5 713.8 663.9 703.4C664 702.4 663.3 701.6 662.4 701.2 661.4 701 660.6 701.7 660.3 702.3L658.9 709.5 654.1 702.1C653.6 701.5 652.4 700.9 651.7 701.6 650.9 702.3 650.5 703.2 651.2 704L656 711.3 648.9 709.9C647.8 709.7 647.1 710.5 646.8 711.1 646.8 711.8 647 712.7 647.6 713 647.6 713 647.9 713.2 647.9 713.2L658.3 715.6 664.8 725.6 641.1 720.5C640.1 720.4 639.3 721.1 639 721.7 639 722.4 639.3 723.3 639.9 723.6 639.9 723.6 640.2 723.8 640.2 723.8L667.2 729.5 680.5 750.3 655.9 751.5 635.6 732.7C634.8 731.9 633.7 732.1 633.2 732.9 632.4 733.7 632.6 734.9 633.5 735.3L651.3 751.7 639.3 752.3 631.4 745.1C630.6 744.4 629.5 744.5 629 745.4 628.2 746.1 628.4 747.3 629.3 747.8L634.6 752.8 625.8 753.1C625 753.1 624.1 754.1 624.1 754.9 624.1 755.6 624.5 756.2 625.1 756.5 625.4 756.7 625.7 756.8 626.1 756.7L634.9 756.4 630 761.7C629.2 762.4 629.3 763.6 630.2 764.1 630.2 764.1 630.5 764.2 630.5 764.2 631.1 764.5 632 764.2 632.6 763.8L639.7 755.8 651.7 755.3 635.3 773.1C634.6 773.8 634.7 775 635.6 775.5 635.6 775.5 635.9 775.6 635.9 775.6 636.5 775.9 637.4 775.6 638 775.2L656.7 754.9 681.4 753.8 670 775.7 643.5 784.1C642.6 784.4 642.1 785.2 642.4 786.1 642.7 787 643.6 787.5 644.5 787.2L667.7 780.1 662.2 790.7 652.3 793.9C651.4 794.2 650.9 795.1 651.2 796S652.4 797.3 653.3 797L660 794.9 656.1 802.6C655.6 803.5 655.9 804.4 656.8 804.8 657.7 805.3 658.6 805 659 804.1L663 796.4 665.1 803.2C665.3 803.6 665.4 804.1 666 804.4S667.1 804.5 667.5 804.4C668.4 804.1 668.9 803.2 668.6 802.3L665.4 792.4 671 781.8 678.4 805.1C678.5 805.6 678.7 806 679.3 806.3 679.6 806.5 680.3 806.5 680.8 806.4 681.7 806.1 682.1 805.2 681.8 804.3L673.4 777.8 684.7 755.9 698 776.6 692.3 803.7C692.3 804.4 692.5 805.3 693.1 805.7 693.1 805.7 693.4 805.8 693.4 805.8 694.5 806 695.2 805.2 695.5 804.6L700.6 781 707.1 791.1 704.7 801.5C704.7 802.2 704.9 803.1 705.5 803.4 705.5 803.4 705.8 803.6 705.8 803.6 706.9 803.8 707.6 803 707.9 802.4L709.4 795.3 714.2 802.7C714.5 802.8 714.6 803.3 714.9 803.4 715.5 803.7 716.3 803.7 716.9 803.3 717.6 802.6 718.1 801.7 717.4 800.9L712.5 793.6 719.7 795C720.7 795.2 721.5 794.4 721.8 793.8 721.9 792.8 721.2 792 720.6 791.7L710.2 789.3 703.8 779.3 727.4 784.4C728.5 784.5 729.2 783.8 729.5 783.2 729.1 781.9 728.5 780.8 727.5 780.6Z" fill="rgba(63, 175, 34, 0.23)"></path><path d="M369.1 50.5L392.6 65.1 398.1 89.1 374.5 81.9 361.8 57.3C361.8 57.3 361.5 57.1 361.5 57.1 361.1 56.6 360.1 56.6 359.4 56.8 358.5 57.2 358.2 58.4 358.9 59.1L370.1 80.5 358.7 77 353.6 67.6C353.6 67.6 353.4 67.4 353.4 67.4 352.9 66.9 352 66.9 351.2 67.1 350.3 67.5 350 68.7 350.7 69.4L354 75.9 345.6 73.2C344.9 73 343.7 73.6 343.4 74.3 342.9 75.2 343.8 76.2 344.5 76.5L352.9 79.2 346.4 82.5C345.5 82.9 345.2 84.1 345.9 84.8 346.3 85.8 347.5 86 348.2 85.4L357.6 80.3 368.8 84 347.4 95.2C346.4 95.7 346.1 96.8 346.8 97.6 347.2 98.5 348.4 98.8 349.1 98.1L373.7 85.4 397.2 92.6 378.9 109.6 351.1 108.6C350.2 108.5 349.4 109.2 349.4 110.2 349.4 111.1 350 111.8 351 111.9L375.5 112.8 366.7 121 356.3 120.6C355.4 120.5 354.6 121.2 354.6 122.2 354.6 123.1 355.2 123.8 356.2 123.9L363.2 124.1 356.4 130.5C355.4 130.9 355.6 132.1 356.3 132.8 357 133.6 357.9 133.6 358.7 132.9L365 127 364.8 134.1C364.7 135 365.4 135.8 366.3 135.8S368 135.2 368.1 134.2L368.4 123.9 377.2 115.7 376.3 140.2C376.3 141.1 377 141.9 377.9 141.9 378.9 141.9 379.6 141.3 379.6 140.3L380.7 112.5 398.8 95.7 404.2 119.8 389.9 142.6C389.4 143.5 389.8 144.5 390.5 145.2 391.4 145.7 392.4 145.3 393.1 144.6L405.9 124.1 408.6 135.7 402.8 144.7C402.3 145.7 402.7 146.6 403.4 147.3 404.3 147.9 405.3 147.4 405.8 147L409.6 140.7 411.6 149.3C411.8 150 412.7 151 413.7 150.6 414.6 150.1 415.4 149.4 414.9 148.5L412.9 139.9 419.1 143.7C420 144.2 421 143.8 421.5 143.3 421.8 142.6 421.8 141.7 421.3 141.2 421.3 141.2 421.1 140.9 421.1 140.9L412.1 135.2 409.5 123.5 430 136.3C430.9 136.8 431.9 136.4 432.4 135.9 432.6 135.2 432.7 134.3 432.2 133.8 432.2 133.8 432 133.6 432 133.6L408.5 119 403 95 426.6 102.2 439.3 126.8C439.8 127.7 440.9 128 441.7 127.3 442.6 126.9 442.9 125.7 442.2 125L431 103.6 442.4 107.1 447.5 116.5C447.9 117.4 449.1 117.7 449.8 117 450.8 116.6 451.1 115.4 450.4 114.7L447.1 108.2 455.5 110.9C456.2 111.1 457.4 110.5 457.7 109.8 457.9 109.1 457.7 108.4 457.3 107.9 457 107.6 456.8 107.4 456.3 107.4L448 104.7 454.4 101.4C455.4 101 455.7 99.8 455 99 455 99 454.8 98.8 454.8 98.8 454.3 98.3 453.4 98.3 452.7 98.5L443.3 103.6 431.9 100.1 453.3 88.8C454.2 88.4 454.5 87.2 453.8 86.5 453.8 86.5 453.6 86.3 453.6 86.3 453.1 85.8 452.2 85.7 451.5 85.9L426.9 98.7 403.4 91.4 421.5 74.7 449.3 75.7C450.2 75.8 451 75.1 451 74.1 451 73.2 450.3 72.5 449.4 72.4L425.2 71.3 434 63.1 444.3 63.5C445.3 63.5 446 62.9 446 61.9S445.4 60.2 444.4 60.2L437.4 59.9 443.7 54C444.5 53.4 444.5 52.4 443.8 51.7 443.1 51 442.2 50.9 441.5 51.6L435.1 57.5 435.4 50.4C435.4 50 435.4 49.5 435 49S434 48.5 433.6 48.5C432.6 48.4 431.9 49.1 431.9 50.1L431.5 60.4 422.7 68.6 423.6 44.1C423.6 43.6 423.6 43.1 423.2 42.7 422.9 42.4 422.2 42.1 421.8 42.1 420.8 42.1 420.1 42.8 420.1 43.7L419 71.5 400.9 88.3 395.5 64.3 410 40.7C410.3 40 410.3 39.1 409.9 38.6 409.9 38.6 409.6 38.4 409.6 38.4 408.7 37.9 407.8 38.3 407.3 38.8L394.5 59.3 391.8 47.6 397.6 38.6C397.9 37.9 397.9 37 397.5 36.5 397.5 36.5 397.2 36.3 397.2 36.3 396.3 35.7 395.3 36.2 394.9 36.6L391.1 42.9 389 34.3C388.8 34 388.8 33.6 388.6 33.3 388.2 32.8 387.5 32.6 386.7 32.8 385.8 33.2 385 33.9 385.5 34.9L387.5 43.4 381.3 39.7C380.4 39.2 379.4 39.6 378.9 40 378.4 41 378.9 41.9 379.3 42.4L388.3 48.2 390.9 59.8 370.4 47C369.5 46.5 368.5 47 368 47.4 368 48.8 368.2 50 369.1 50.5Z" fill="rgba(63, 175, 34, 0.23)"></path><path d="M985.7 116.8L1005.8 156.1 1002.3 167.8 975.7 173.6 967.2 164.5 969.6 120.3C969.5 119.8 969.5 119.8 969.3 119.3 969.1 118.3 968.4 117.3 966.7 117.2 965.1 117.5 964.2 118.2 964 119.9L962.1 158.6 949.2 144.4 949.8 127.4C949.8 127.4 949.7 126.9 949.7 126.9 949.5 125.8 948.7 124.9 947.1 124.7 945.9 124.4 944.6 125.8 944.4 127.5L943.5 138.6 934.1 128.1C933.4 127.1 931.7 127 930.3 127.8S929.3 130.8 930.1 132.2L939.4 142.2 928.4 141.9C926.7 141.7 925.4 143.1 925.2 144.8 925.5 145.8 926.3 147.3 928 147.4L945.1 148.1 958.1 162.7 919.4 160.8C917.8 160.6 916.4 162 916.1 163.1 916.5 164.7 917.3 166.1 919 166.3L963.1 168.2 971.7 177.7 963.6 203 951.1 205.7 913.7 182.2C912.5 181.4 910.9 181.7 910.1 183S909.6 185.8 910.9 186.6L943.8 207.3 924.5 211.5 910.5 202.6C909.3 201.7 907.7 202.1 906.4 203.5S905.9 206.3 907.2 207.1L917.2 213.1 903.1 216.2C901.6 216.5 900.9 218.3 901.2 219.9 901.6 221.4 902.8 222.3 904.4 221.9L918.5 218.8 912.4 228.4C911 229.7 911.4 231.3 913.1 232 914.4 232.8 916 232.5 916.8 231.2L925.8 217.2 945 213 923.7 245.5C922.9 246.8 923.4 248.9 924.7 249.7S927.5 250.2 928.3 248.9L952.3 211.4 964.8 208.7 982.9 228.8 978.9 240.6 939.6 260.6C938.1 261.5 938 263.2 938.3 264.7 939.2 266.2 940.8 266.4 942.4 266L976.7 248.2 970.9 266.4 955.6 274.1C954.2 274.9 954 276.6 954.3 278.2 955.1 279.1 956.9 279.8 958.3 278.9L968.2 274 964 287.5C963.7 288.7 964.6 290.1 965.9 290.9 967.5 291.1 969 290.2 969.3 289.1L973.4 275.6 978.9 285.9C979.7 286.8 981.5 287.5 982.4 286.8 984 286.4 984.3 285.3 983.9 283.7 983.9 283.7 983.8 283.2 983.8 283.2L976.1 267.9 982 249.7 999.8 284.1C1000.7 285.5 1002 286.3 1003.4 285.5 1004.9 284.6 1005.2 283.4 1004.9 282.4 1004.8 281.9 1004.8 281.9 1004.8 281.9L984.1 242.2 988.1 230.4 1014.7 224.6 1022.7 233.8 1021 278.4C1020.7 279.5 1022.1 280.8 1023.2 281.1 1024.9 281.3 1026.2 279.9 1026.4 278.3L1028.4 239.6 1041.3 253.7 1040.6 270.8C1040.4 272.5 1041.3 273.9 1042.9 273.6 1044.5 273.8 1045.9 272.4 1046.2 271.2L1046.4 259.7 1055.8 270.2C1057 271 1058.7 271.2 1060.2 270.3 1060.6 269.7 1060.9 268.6 1060.6 267.5 1060.5 267 1060.5 267 1059.9 266.6L1050.5 256.1 1062 256.3C1063.7 256.5 1064.5 255.2 1064.8 254.1 1064.7 253.5 1064.7 253.5 1064.6 253 1064.3 252 1063.6 251 1062.4 250.7L1045.4 250.1 1032.5 236 1071.1 237.9C1072.7 237.6 1074.1 236.7 1073.8 235.2 1074.2 234.5 1074.2 234.5 1074.1 234 1073.8 233 1072.6 232.2 1071.4 231.9L1026.8 230.1 1018.8 221 1026.8 195.2 1038.8 192.6 1076.3 216.6C1077.6 217.4 1079.6 217 1080.5 215.7S1080.8 212.3 1079.5 211.5L1046.6 190.9 1065.4 186.8 1079.9 195.6C1081.2 196.4 1082.7 196.1 1083.5 194.8 1084.4 193.6 1084 192 1082.7 191.2L1073.2 185.1 1087.3 182C1088.3 181.8 1089.7 180.4 1089.3 178.8 1089 177.3 1087.1 176 1086 176.3L1072 179.3 1078.1 169.8C1078.5 169.2 1078.9 168.5 1078.8 168 1078.6 167 1077.9 166.6 1077.3 166.2 1076 165.4 1074.5 165.7 1073.6 167L1064.2 181 1045.4 185.1 1066.7 152.6C1067.1 152 1067 151.5 1066.8 150.5 1066.6 149.9 1066.5 149.4 1065.9 149 1064.6 148.2 1062.5 148.6 1061.7 149.9L1037.6 186.8 1025.6 189.5 1007.7 169.9 1011 157.7 1050.8 137.5C1051.8 136.8 1052.6 135.5 1052.4 134.5 1052.2 134 1052.2 134 1051.7 134.1 1051.4 132.5 1049.6 131.8 1048.1 132.7L1013.8 150.5 1019.6 131.8 1034.8 124.1C1035.7 123.4 1036 122.2 1035.8 121.2 1035.8 121.2 1035.7 120.7 1035.7 120.7 1035.4 119.1 1033.6 118.4 1032.1 119.3L1021.9 124.8 1026 111.3C1026.4 110.7 1026.3 110.1 1026.2 109.6 1026 108.6 1025.2 107.7 1024.7 107.8 1022.9 107.1 1021.5 107.9 1020.6 109.2L1016.5 122.7 1011.6 112.8C1010.7 111.4 1008.9 110.7 1007.5 111.5 1006.6 112.3 1005.9 114.1 1006.6 115L1014.3 130.2 1008.5 148.4 990.6 114.1C989.7 112.7 988.1 112.5 986.5 112.8 985.6 113.6 984.9 115.4 985.7 116.8ZM980.1 178.6L1000.4 174.2 1003.6 173.5 1005.7 175.8 1019.3 190.8 1021.6 193.6 1020.6 196.6 1014.4 215.9 1013.5 218.9 1010.3 219.5 990 224 986.9 224.7 984.7 222.4 971.1 207.4 969 205.1 969.8 201.6 976 182.3 977 179.3 980.1 178.6Z" fill="rgba(63, 175, 34, 0.23)"></path><path d="M60.9 557.9L65.3 568.7 58.3 568.1C57.6 567.9 56.7 568.5 56.4 569.5 56.5 570.5 57.1 571.3 58 571.2L66.8 572.3 70.6 580.6 52.4 578.2C51.4 578.3 50.6 578.9 50.4 579.7 50.4 580.9 51 581.7 51.9 581.6L72 584.2 77.4 597 61.9 593.3 69.8 607.1 56 605.5 47.9 586.9C48.1 586.7 47.8 586.5 47.6 586.3 47 585.9 46.3 585.7 45.6 586.1 45 586.4 44.6 587.4 44.8 588.3L52.2 605.1 43.2 603.8 39.6 595.7C39.6 595.3 39.3 595.1 39 594.9 38.8 594.7 38 594.5 37.4 594.9 36.7 595.2 36.4 596.2 36.7 596.9L39.3 603.4 27.7 602.2C26.7 601.9 26.1 602.7 25.8 603.7 25.6 604.4 26.2 605.3 27.4 605.3L38.8 606.8 34.7 612.4C34.1 613.2 34.5 614.3 35 614.7 35.8 615.3 36.7 615.2 37.3 614.4L42.7 607.2 51.7 608.5 40.9 622.9C40.3 623.7 40.5 624.7 41.3 625.3 41.8 625.7 43 625.7 43.6 624.9L55.6 608.9 69.4 610.5 58.7 622.1 74.4 622.2 66 633.4 46.1 631C44.9 630.9 44.3 631.7 44.2 632.5 44.1 633.2 44.7 634.1 45.7 634.4L63.8 636.3 58.4 643.5 49.5 642.7C48.5 642.3 47.6 642.9 47.5 644.1 47.4 644.9 48 645.7 49.2 645.8L56 646.7 49 656.1C48.4 656.9 48.6 657.8 49.4 658.4S51.1 658.9 51.7 658.1L58.7 648.7 61.5 655C61.9 656.1 62.9 656.5 63.6 656.1 64.7 655.7 65 654.7 64.4 653.9L61.1 645.5 66.5 638.3 73.4 655.2C74 656 75 656.4 75.7 656 76.8 655.6 77.1 654.6 76.5 653.8L68.7 635.4 77.1 624.2 81.6 639.2 89.7 625.7 95.1 638.5 83.1 654.5C82.5 655.3 82.9 656.4 83.4 656.8 84.2 657.4 85.2 657.3 85.8 656.5L96.7 641.8 100.3 650.4 95 657.6C94.4 658.4 94.5 659.3 95.3 659.9 95.8 660.3 97 660.4 97.6 659.6L101.8 654 106.4 664.5C106.8 665.6 107.8 666 108.7 665.4 109.4 665 110 664.2 109.4 663.4L104.9 652.6 111.9 653.2C112.7 653.4 113.5 652.8 113.7 652 113.8 651.3 113.5 650.6 113.2 650.4 112.9 650.2 112.7 650 112.2 650.1L103.5 649 99.7 640.7 117.9 643.1C118.8 642.9 119.7 642.3 119.8 641.6 119.9 640.9 119.6 640.2 119.1 639.8 118.8 639.6 118.8 639.6 118.3 639.7L98.2 637.1 92.8 624.3 108.3 628 100.4 614.2 114.2 615.8 122.3 634.3C122.7 635 123.5 635.6 124.6 635.2 125.3 634.9 125.6 633.9 125.5 632.9L118.1 616.2 127.1 617.5 130.6 625.5C130.7 626.5 131.7 626.8 132.9 626.4 133.5 626.1 133.9 625.1 133.7 624.1L130.9 617.9 142.5 619.1C143.5 619.4 144.1 618.6 144.5 617.6 144.4 617.1 144.1 616.5 143.8 616.3 143.5 616.1 143.3 615.9 142.8 615.9L131.4 614.5 135.6 608.9C136.2 608.1 135.8 606.9 135.2 606.5L135.2 606.5C134.4 605.9 133.5 606.1 132.9 606.9L127.5 614.1 118.5 612.8 129.3 598.3C129.9 597.5 129.8 596.6 129 596S127.2 595.5 126.6 596.3L114.7 612.4 100.9 610.8 111.6 599.2 95.8 599.1 104.2 587.9 124.1 590.3C125.3 590.3 125.9 589.5 126 588.8 126.2 588.1 125.6 587.2 124.6 586.9L106.6 584.7 111.8 577.8 120.8 578.6C121.8 578.9 122.6 578.3 122.7 577.1 122.8 576.4 122.2 575.5 121.2 575.2L114.2 574.6 121.2 565.2C121.8 564.4 121.7 563.5 120.9 562.9S119.2 562.4 118.6 563.2L111.6 572.6 108.8 566.3C108.7 565.8 108.4 565.6 108.2 565.4 107.6 565 107.2 565.1 106.7 565.2 105.6 565.6 105.2 566.6 105.8 567.4L109.2 575.8 103.8 583 96.8 566.1C96.6 565.9 96.3 565.7 96 565.5 95.5 565.1 95 565.2 94.6 565.2 93.4 565.6 93.1 566.6 93.7 567.5L101.6 585.9 93.2 597.1 88.6 582 80.6 595.6 75.2 582.8 87.2 566.8C87.8 566 87.4 564.8 86.8 564.4 86 563.8 85.1 564 84.5 564.8L73.7 579.2 69.9 570.9 75.3 563.7C75.9 562.9 75.8 562 75 561.4S73.2 560.9 72.6 561.7L68.4 567.3 63.8 556.8C63.7 556.3 63.5 556.1 63.2 555.9 62.9 555.7 62.2 555.6 61.5 555.9 60.9 556.3 60.3 557.1 60.9 557.9ZM87.6 590L91.3 602.4 104.2 602.4 95.3 612 101.7 623 89.1 620.3 82.6 631.2 78.9 618.9 66.1 618.9 74.7 609.5 68.6 598.3 80.9 601.2 87.6 590Z" fill="rgba(63, 175, 34, 0.23)"></path><path d="M624.8 136.4L604.1 154.6 596.5 154.3 588.9 139.1 593.1 132.6 620.2 127.2C620.5 127 620.5 127 620.8 126.9 621.4 126.6 621.8 126 621.7 124.9 621.2 124 620.6 123.6 619.6 123.7L595.9 128.5 602.4 118.5 612.9 116.3C612.9 116.3 613.2 116.1 613.2 116.1 613.8 115.8 614.2 115.3 614.1 114.2 614.1 113.5 613 112.9 612 113L605.1 114.2 610 106.9C610.5 106.3 610.3 105.3 609.6 104.5S607.7 104.4 606.9 105.1L602.3 112.3 600.8 105.6C600.6 104.5 599.6 103.9 598.6 104.1 598 104.4 597.2 105.1 597.4 106.2L599.6 116.6 592.8 126.7 588 103C587.8 102 586.8 101.4 586 101.4 585.1 101.9 584.4 102.6 584.5 103.6L590.2 130.6 585.8 137.3 569.2 136.3 565.6 129.2 574.1 102.9C574.4 102 574 101.1 573.1 100.8S571.3 101 571 101.9L563.5 125 558 114 561.3 104.1C561.6 103.2 561.1 102.3 560.1 101.7S558.3 101.9 558 102.8L555.9 109.8 551.9 101.7C551.5 100.8 550.3 100.7 549.4 101.1 548.5 101.6 548.2 102.5 548.6 103.4L552.7 111.4 545.9 109.2C544.9 108.6 544 109 543.9 110.2 543.6 111.1 544 112 544.9 112.3L554.7 115.6 560.3 126.6 537.3 118.7C536.4 118.4 535.2 119 534.9 119.9S535.1 121.7 536 122L562.4 130.8 565.9 137.9 556.6 152 548.8 151.4 530.6 130.7C529.9 129.9 528.8 130.1 527.9 130.5 527.2 131.3 527.3 132.3 527.8 133.2L543.9 151.2 532 150.5 524.9 142.5C524.2 141.7 523.2 141.9 522.3 142.3 521.8 142.9 521.7 144.1 522.4 144.8L526.9 150.1 518.1 149.6C517.4 149.6 516.6 150.4 516.3 151.3 516.5 152.3 517.2 153 518 153L526.7 153.5 521.4 158.4C520.9 159 520.8 160.2 521.4 160.6 521.8 161.5 522.6 161.5 523.5 161.1 523.5 161.1 523.8 160.9 523.8 160.9L531.8 153.9 543.7 154.7 525.7 170.8C525 171.5 524.7 172.4 525.4 173.2 526.2 173.9 526.9 173.9 527.5 173.6 527.8 173.5 527.8 173.5 527.8 173.5L548.7 154.8 556.4 155.4 564 170.6 559.7 176.9 532.4 182.7C531.7 182.7 531.1 183.7 531.1 184.5 531.2 185.5 532.3 186.1 533.3 186L557 181.2 550.5 191.2 540 193.4C539 193.6 538.3 194.3 538.7 195.2 538.9 196.3 539.9 196.9 540.6 196.9L547.6 195.2 542.7 202.5C542.4 203.4 542.6 204.5 543.3 205.2 543.8 205.3 544.5 205.3 545.1 205 545.4 204.9 545.4 204.9 545.6 204.4L550.5 197.1 552.1 204.1C552.3 205.2 553.2 205.5 553.9 205.5 554.2 205.3 554.2 205.3 554.5 205.2 555.1 204.9 555.6 204.3 555.6 203.5L553.3 193.1 559.9 183.1 564.7 206.8C565.1 207.7 565.8 208.5 566.7 208 567.2 208.2 567.2 208.2 567.5 208 568.1 207.7 568.4 206.8 568.4 206.1L562.5 178.8 566.9 172.5 583.7 173.4 587.1 180.3 578.4 206.7C578.1 207.6 578.7 208.7 579.6 209S581.6 208.7 581.9 207.8L589.4 184.7 594.8 195.5 591.6 205.6C591.3 206.5 591.8 207.4 592.7 207.7 593.6 208 594.5 207.5 594.8 206.6L597 199.9 601 208C601.3 208.6 602.4 209.2 603.3 208.7 604.2 208.3 604.6 206.9 604.3 206.3L600.3 198.3 607 200.5C607.4 200.7 607.9 200.8 608.2 200.7 608.8 200.4 608.9 199.9 609.1 199.5 609.4 198.6 608.9 197.7 608 197.4L598 193.8 592.7 183.1 615.6 191C616.1 191.1 616.4 191 617 190.7 617.3 190.5 617.6 190.4 617.7 189.9 618 189 617.4 187.8 616.5 187.5L590.4 178.6 587 171.8 596.1 157.9 604 158 622.3 179C622.9 179.5 623.8 179.8 624.4 179.5 624.7 179.3 624.7 179.3 624.6 179 625.5 178.6 625.6 177.4 624.9 176.7L608.7 158.6 621 159.2 628 167.3C628.6 167.7 629.3 167.7 629.9 167.4 629.9 167.4 630.2 167.3 630.2 167.3 631.1 166.8 631.3 165.6 630.5 164.9L625.6 159.5 634.4 160C634.8 160.1 635.1 160 635.4 159.8 636 159.5 636.5 158.9 636.3 158.6 636.5 157.4 635.7 156.7 634.8 156.4L626 155.9 631.2 151.5C632 150.7 632.1 149.5 631.4 148.8 630.8 148.3 629.6 148.2 629.2 148.8L621.1 155.8 609.2 155.1 627.2 138.9C628 138.2 627.8 137.2 627.4 136.3 626.8 135.8 625.6 135.7 624.8 136.4ZM586.5 142.6L592.3 154.2 593.2 156 592.2 157.6 585.2 168.2 583.9 170 581.9 169.8 569.2 169.1 567.3 169 566.4 167.2 560.6 155.5 559.7 153.8 560.7 152.1 567.7 141.5 568.8 139.9 571 139.9 583.7 140.6 585.6 140.8 586.5 142.6Z" fill="rgba(63, 175, 34, 0.23)"></path><path d="M1049.7 612.5L1030 593.1 1030 568.4 1051.4 580.8 1058.4 607.5C1058.4 607.5 1058.5 607.8 1058.5 607.8 1058.9 608.4 1059.8 608.6 1060.5 608.6 1061.5 608.4 1062.1 607.3 1061.6 606.4L1055.4 583.1 1065.8 589 1068.6 599.3C1068.6 599.3 1068.8 599.6 1068.8 599.6 1069.1 600.2 1070 600.4 1070.8 600.4 1071.8 600.1 1072.3 599.1 1071.8 598.2L1070.1 591.1 1077.7 595.6C1078.3 596 1079.6 595.6 1080 595 1080.7 594.2 1080 593.1 1079.4 592.7L1071.8 588.2 1078.9 586.4C1079.9 586.2 1080.5 585.1 1080 584.3 1079.8 583.2 1078.7 582.7 1077.8 583.2L1067.5 586.1 1057.5 579.9 1080.8 573.8C1081.9 573.6 1082.4 572.5 1081.9 571.6 1081.7 570.6 1080.6 570 1079.7 570.5L1053 577.5 1031.6 565.2 1053.3 552.7 1080.2 559.9C1081.1 560.2 1081.9 559.7 1082.2 558.8 1082.4 557.8 1081.9 557 1081 556.7L1057.3 550.4 1067.7 544.4 1077.7 547.1C1078.7 547.3 1079.5 546.8 1079.8 545.9 1080 545 1079.5 544.1 1078.6 543.9L1071.8 542.1 1079.9 537.4C1080.9 537.2 1081 536 1080.5 535.1 1080 534.2 1079.1 534 1078.2 534.5L1070.7 538.8 1072.5 532C1072.8 531.1 1072.3 530.2 1071.3 530S1069.6 530.2 1069.3 531.1L1066.6 541.2 1056.2 547.2 1062.6 523.5C1062.8 522.6 1062.3 521.7 1061.4 521.5 1060.5 521.2 1059.7 521.7 1059.4 522.6L1052.2 549.5 1030.8 561.8 1030.9 537.2 1049.9 518.1C1050.6 517.3 1050.4 516.3 1049.9 515.4 1049.1 514.7 1048 514.9 1047.2 515.4L1030.1 532.6 1030.2 520.6 1037.8 513.2C1038.5 512.4 1038.3 511.3 1037.8 510.5 1037 509.8 1036 510 1035.4 510.3L1030.3 515.6 1030.2 506.7C1030.2 506 1029.5 504.9 1028.5 505.1 1027.5 505.3 1026.6 505.8 1026.8 506.8L1026.9 515.6 1021.7 510.5C1020.9 509.8 1019.8 510.1 1019.3 510.4 1018.8 511 1018.6 511.9 1018.9 512.5 1018.9 512.5 1019.1 512.8 1019.1 512.8L1026.6 520.4 1026.5 532.4 1009.4 515.3C1008.6 514.6 1007.6 514.8 1007 515.2 1006.6 515.8 1006.3 516.7 1006.7 517.3 1006.7 517.3 1006.8 517.6 1006.8 517.6L1026.5 537 1026.5 561.6 1005.1 549.3 998.2 522.6C998 521.5 996.9 521 996 521.5 995 521.7 994.5 522.8 995 523.6L1001.1 547 990.8 541.1 987.9 530.8C987.7 529.7 986.6 529.2 985.8 529.7 984.7 529.9 984.2 531 984.7 531.9L986.5 538.9 978.9 534.5C978.3 534 976.9 534.4 976.5 535 976.1 535.7 976.2 536.4 976.5 537 976.7 537.3 976.8 537.6 977.3 537.7L984.9 542.2 977.8 543.9C976.8 544.1 976.2 545.2 976.7 546.1 976.7 546.1 976.9 546.4 976.9 546.4 977.2 546.9 978.1 547.2 978.9 547.1L989.2 544.3 999.5 550.2 976.2 556.4C975.1 556.6 974.6 557.7 975.1 558.6 975.1 558.6 975.3 558.9 975.3 558.9 975.6 559.4 976.5 559.7 977.2 559.6L1004 552.7 1025.3 565 1004 577.3 977.1 570.1C976.2 569.9 975.3 570.4 975.1 571.3 974.9 572.2 975.4 573 976.3 573.3L999.7 579.8 989.3 585.8 979.2 583.1C978.3 582.9 977.5 583.4 977.2 584.3S977.5 586.1 978.4 586.3L985.2 588.1 977.7 592.5C976.8 593 976.6 593.9 977.1 594.7 977.6 595.6 978.5 595.9 979.4 595.4L986.9 591 985 597.9C984.9 598.3 984.8 598.8 985.1 599.3S985.9 600 986.4 600.2C987.3 600.4 988.2 599.9 988.4 599L991.1 589 1001.5 583 995.1 606.7C995 607.1 994.9 607.6 995.2 608.1 995.4 608.4 996 608.8 996.5 609 997.4 609.2 998.2 608.7 998.5 607.8L1005.7 580.9 1027.1 568.6 1027 593.3 1007.6 612.9C1007.2 613.6 1006.9 614.5 1007.3 615 1007.3 615 1007.4 615.3 1007.4 615.3 1008.2 616 1009.3 615.8 1009.8 615.5L1026.9 598.3 1026.9 610.3 1019.2 617.8C1018.8 618.4 1018.6 619.3 1018.9 619.9 1018.9 619.9 1019.1 620.2 1019.1 620.2 1019.9 620.9 1020.9 620.7 1021.5 620.3L1026.5 615.1 1026.6 623.9C1026.8 624.2 1026.7 624.6 1026.8 624.9 1027.2 625.5 1027.8 625.9 1028.5 625.9 1029.6 625.7 1030.4 625.2 1030.2 624.1L1030.1 615.3 1035.4 620.4C1036.2 621.1 1037.2 620.9 1037.8 620.5 1038.5 619.8 1038.3 618.7 1037.9 618.1L1030.5 610.5 1030.5 598.6 1047.6 615.6C1048.4 616.3 1049.5 616.1 1050 615.8 1050.4 614.4 1050.5 613.2 1049.7 612.5Z" fill="rgba(63, 175, 34, 0.23)"></path></g><defs><mask id="SvgjsMask1053"><rect width="1200" height="800" fill="#ffffff"></rect></mask><filter id="SvgjsFilter1054"><feGaussianBlur stdDeviation="1"></feGaussianBlur></filter></defs></svg>